<?xml version="1.0" encoding="UTF-8" standalone="no"?>
<!-- Created with Inkscape (http://www.inkscape.org/) -->

<svg
   width="150mm"
   height="150mm"
   viewBox="0 0 150 150"
   version="1.1"
   id="svg1"
   inkscape:version="1.3.2 (091e20ef0f, 2023-11-25, custom)"
   sodipodi:docname="logo_dusty.svg"
   xml:space="preserve"
   inkscape:export-filename="logo_dusty.png"
   inkscape:export-xdpi="300"
   inkscape:export-ydpi="300"
   xmlns:inkscape="http://www.inkscape.org/namespaces/inkscape"
   xmlns:sodipodi="http://sodipodi.sourceforge.net/DTD/sodipodi-0.dtd"
   xmlns="http://www.w3.org/2000/svg"
   xmlns:svg="http://www.w3.org/2000/svg"><sodipodi:namedview
     id="namedview1"
     pagecolor="#ffffff"
     bordercolor="#666666"
     borderopacity="1.0"
     inkscape:showpageshadow="2"
     inkscape:pageopacity="0.0"
     inkscape:pagecheckerboard="0"
     inkscape:deskcolor="#d1d1d1"
     inkscape:document-units="mm"
     inkscape:zoom="1.4142136"
     inkscape:cx="224.85995"
     inkscape:cy="327.03688"
     inkscape:window-width="2560"
     inkscape:window-height="1371"
     inkscape:window-x="0"
     inkscape:window-y="32"
     inkscape:window-maximized="1"
     inkscape:current-layer="layer1" /><defs
     id="defs1"><style
       type="text/css"
       id="style1">*{stroke-linejoin: round; stroke-linecap: butt}</style><clipPath
       id="pda17e31029"><rect
         x="57.6"
         y="41.472"
         width="357.12"
         height="266.112"
         id="rect2" /></clipPath><clipPath
       clipPathUnits="userSpaceOnUse"
       id="clipPath52"><rect
         style="fill:none;stroke:#f9f9f9;stroke-width:0.3;stroke-dasharray:none"
         id="rect53"
         width="234.48621"
         height="107.31154"
         x="-119.86988"
         y="-1.2262946"
         transform="rotate(-45)" /></clipPath><clipPath
       clipPathUnits="userSpaceOnUse"
       id="clipPath53"><rect
         style="fill:none;stroke:#f9f9f9;stroke-width:0.3;stroke-dasharray:none"
         id="rect54"
         width="234.48621"
         height="107.31154"
         x="-85.07148"
         y="106.16237"
         transform="rotate(-45)" /></clipPath></defs><g
     inkscape:label="Layer 1"
     inkscape:groupmode="layer"
     id="layer1"><text
       xml:space="preserve"
       style="font-style:italic;font-variant:normal;font-weight:bold;font-stretch:normal;font-size:19.7556px;line-height:1.05;font-family:Carlito;-inkscape-font-specification:'Carlito Bold Italic';text-align:center;text-anchor:middle;fill:#f9f9f9;fill-opacity:1;stroke:none;stroke-width:0.264583"
       x="-196.36934"
       y="-61.777348"
       id="text3"><tspan
         sodipodi:role="line"
         id="tspan3"
         style="font-style:italic;font-variant:normal;font-weight:bold;font-stretch:normal;font-size:19.7556px;line-height:1.05;font-family:Carlito;-inkscape-font-specification:'Carlito Bold Italic';text-align:center;text-anchor:middle;fill:#f9f9f9;stroke-width:0.264583"
         x="-196.36934"
         y="-61.777348">SEISMIC</tspan><tspan
         sodipodi:role="line"
         style="font-style:italic;font-variant:normal;font-weight:bold;font-stretch:normal;font-size:19.7556px;line-height:1.05;font-family:Carlito;-inkscape-font-specification:'Carlito Bold Italic';text-align:center;text-anchor:middle;fill:#f9f9f9;stroke-width:0.264583"
         x="-196.36934"
         y="-41.03397"
         id="tspan5">CYCLE </tspan><tspan
         sodipodi:role="line"
         style="font-style:italic;font-variant:normal;font-weight:bold;font-stretch:normal;font-size:19.7556px;line-height:1.05;font-family:Carlito;-inkscape-font-specification:'Carlito Bold Italic';text-align:center;text-anchor:middle;fill:#f9f9f9;stroke-width:0.264583"
         x="-196.36934"
         y="-20.290592"
         id="tspan4">RACING</tspan></text><path
       d="m 73.832727,197.39349 3.26286,-1.17149 1.63143,1.0831 1.63143,-0.48766 1.63143,-0.25368 1.63143,0.1608 1.631429,-0.67306 1.63143,1.40015 1.63143,0.66967 1.63143,1.27679 1.63143,-0.95039 1.63143,-8.33673 1.63143,2.76997 1.63143,9.03199 1.631429,0.63548 1.63143,-1.4376 1.631435,-7.72203 1.63143,1.67364 1.63142,2.2825 1.63144,-5.65092 1.63142,9.60189 1.63144,-4.32246 1.63142,-8.40188 1.63143,11.62834 1.63143,-0.84252 1.63143,0.45116 1.63143,2.5745 1.63143,-16.06297 1.63143,5.40031 1.63143,19.0182 1.63143,-19.53971 1.63143,-3.89587 1.63143,14.97302 1.63143,-10.49829 1.63143,11.34267 1.63143,1.67201 1.63143,-9.80115 1.63143,5.75035 1.63143,-10.32688 1.63143,1.00211 1.63143,12.82784 1.63143,1.78008 1.63143,-17.06011 1.63143,-0.93973 1.63143,20.78316 1.63143,-16.95228 1.63143,-8.08579 1.63143,21.16466 1.63143,-4.47468 1.63143,-6.91855 1.63143,13.07249 1.63143,-5.92428 1.63143,-12.04776 1.63143,1.79841 1.63143,14.79244 1.63143,58.91885 3.26286,-210.5836 1.63143,205.17299 1.63143,-6.57167 1.63143,-73.2176 1.63143,116.53628 1.63143,-133.62934 1.63143,-38.91717 1.63143,124.55401 1.63143,-63.29873 1.63143,-33.71603 1.63143,49.88745 1.63143,64.12161 1.63143,-39.50804 1.63143,-103.47026 3.26286,91.95586 1.63143,-7.84611 1.63143,-0.70929 1.63143,1.03508 1.63143,-8.14927 1.63143,15.20626 1.63143,8.37413 1.63143,-73.5019 1.63143,31.97752 1.63143,50.30516 1.63143,-50.55618 1.63143,-0.74666 1.63143,32.42332 1.63143,3.54393 1.63143,-26.6039 1.63143,2.48683 1.63143,15.206 1.63143,-3.59949 1.63143,3.73118 1.63143,-18.88532 1.63143,-24.48117 1.63143,53.28891 1.63143,36.71954 1.63142,-59.7042 1.63143,-11.18545 1.63143,5.97675 1.63144,-24.48275 1.63142,2.77767 1.63143,40.71128 1.63143,35.84099 1.63143,-38.39349 1.63143,-12.06638 1.63143,0.0934 1.63143,-12.10851 1.63143,19.19021 1.63143,-11.61419 1.63143,13.95258 1.63143,16.61858 1.63143,-17.80824 1.63143,-1.89817 1.63143,-5.52709 1.63143,-12.0677 1.63143,17.06255 1.63143,22.59884 1.63143,-24.00883 1.63143,-15.45292 1.63143,5.61904 1.63143,4.17804 1.63143,11.4869 1.63143,-0.60104 1.63143,-0.45708 1.63143,-10.41462 1.63143,-3.18684 1.63143,22.35031 1.63143,1.73834 1.63143,-15.67703 1.63143,-7.64454 1.63143,3.53414 1.63143,1.84985 1.63143,-3.10141 1.63143,2.70458 1.63143,4.65109 1.63143,6.90496 1.63143,-1.42684 1.63143,-5.00476 1.63143,3.8608 3.26286,-20.49252 1.63143,18.67792 1.63143,3.60568 1.63143,-12.9968 1.63143,6.85167 1.63143,3.76151 1.63143,-7.22812 1.63143,-4.444 1.63143,2.38397 1.63143,7.46598 1.63143,0.74418 1.63143,1.60438 1.63143,5.75537 1.63143,-6.94662 1.63143,-8.53816 1.63143,-7.48967 1.63143,-0.25227 1.63143,12.76706 1.63143,-2.65506 1.63143,4.7757 1.63143,8.50368 1.63143,-15.50279 1.63143,-1.63781 1.63143,14.57566 1.63143,-3.96775 1.63143,-18.24649 1.63143,2.77152 1.63143,17.79852 1.63143,-0.17922 1.63143,-5.36613 1.63143,2.09071 1.63143,-0.37016 1.63143,-3.68614 1.63143,-2.15604 1.63143,1.73813 1.63143,-0.75805 1.63143,-5.68746 1.63143,1.59969 1.63142,9.91753 1.63143,2.52083 1.63144,-6.26361 1.63142,-2.73843 1.63144,1.43718 1.63142,-3.64401 1.63143,1.5887 1.63143,7.45626 1.63143,-3.44503 1.63143,2.08694 1.63143,3.16828 1.63143,-9.06102 1.63143,-6.241 1.63143,-1.10035 1.63143,12.44152 1.63143,2.99155 1.63143,-14.21282 1.63143,10.7697 1.63143,8.09917 1.63143,-10.42615 1.63143,2.9177 1.63143,0.73429 v 0"
       clip-path="url(#pda17e31029)"
       style="fill:none;stroke:#f9f9f9;stroke-width:3;stroke-linecap:square"
       id="path43"
       transform="matrix(0.27343447,0,0,0.27343447,-263.97343,64.601699)" /><g
       id="g46"
       transform="translate(-274.31932)"><path
         id="path44"
         style="fill:none;stroke:#f9f9f9;stroke-width:2.5;stroke-dasharray:none"
         d="M 30.776657,119.22334 C 25.117787,113.56447 20.53831,106.82621 17.37355,99.343876 14.208791,91.861545 12.458749,83.635145 12.458748,75 12.458746,40.45942 40.45942,12.458748 75,12.458748 c 34.54058,10e-7 62.54125,28.000673 62.54125,62.541252 0,8.635145 -1.75004,16.861546 -4.9148,24.343877 -3.16476,7.482333 -7.74424,14.220593 -13.40311,19.879463"
         sodipodi:nodetypes="csssssc" /><text
         xml:space="preserve"
         style="font-style:normal;font-variant:normal;font-weight:normal;font-stretch:normal;font-size:52.406px;line-height:0.65;font-family:'Rubik One';-inkscape-font-specification:'Rubik One';text-align:start;text-anchor:start;fill:#f9f9f9;fill-opacity:1;stroke:none;stroke-width:0.531909"
         x="76.895073"
         y="90.468925"
         id="text44"
         transform="skewX(-14.935048)"><tspan
           sodipodi:role="line"
           style="font-style:normal;font-variant:normal;font-weight:normal;font-stretch:normal;font-size:52.406px;line-height:0.65;font-family:'Rubik One';-inkscape-font-specification:'Rubik One';text-align:start;text-anchor:start;fill:#f9f9f9;stroke-width:0.531909"
           x="76.895073"
           y="90.468925"
           id="tspan44">C</tspan></text><text
         xml:space="preserve"
         style="font-style:normal;font-variant:normal;font-weight:normal;font-stretch:normal;font-size:52.406px;line-height:0.65;font-family:'Rubik One';-inkscape-font-specification:'Rubik One';text-align:start;text-anchor:start;fill:#f9f9f9;fill-opacity:1;stroke:none;stroke-width:0.531909"
         x="115.09444"
         y="112.99313"
         id="text45"
         transform="skewX(-14.935048)"><tspan
           sodipodi:role="line"
           style="font-style:normal;font-variant:normal;font-weight:normal;font-stretch:normal;font-size:52.406px;line-height:0.65;font-family:'Rubik One';-inkscape-font-specification:'Rubik One';text-align:start;text-anchor:start;fill:#f9f9f9;stroke-width:0.531909"
           x="115.09444"
           y="112.99313"
           id="tspan45">R</tspan></text><text
         xml:space="preserve"
         style="font-style:normal;font-variant:normal;font-weight:normal;font-stretch:normal;font-size:52.406px;line-height:0.65;font-family:'Rubik One';-inkscape-font-specification:'Rubik One';text-align:start;text-anchor:start;fill:#f9f9f9;fill-opacity:1;stroke:none;stroke-width:0.531909"
         x="40.19228"
         y="64.491806"
         id="text46"
         transform="skewX(-14.935048)"><tspan
           sodipodi:role="line"
           style="font-style:normal;font-variant:normal;font-weight:normal;font-stretch:normal;font-size:52.406px;line-height:0.65;font-family:'Rubik One';-inkscape-font-specification:'Rubik One';text-align:start;text-anchor:start;fill:#f9f9f9;stroke-width:0.531909"
           x="40.19228"
           y="64.491806"
           id="tspan46">S</tspan></text></g><g
       id="g1"><path
         style="fill:none;stroke:#eeebbf;stroke-width:0.264583px;stroke-linecap:butt;stroke-linejoin:miter;stroke-opacity:1"
         d="M 31.46418,118.34291 121.52239,28.317799"
         id="path4"
         sodipodi:nodetypes="cc" /><path
         d="m 73.832727,197.39349 3.26286,-1.17149 1.63143,1.0831 1.63143,-0.48766 1.63143,-0.25368 1.63143,0.1608 1.631429,-0.67306 1.63143,1.40015 1.63143,0.66967 1.63143,1.27679 1.63143,-0.95039 1.63143,-8.33673 1.63143,2.76997 1.63143,9.03199 1.631429,0.63548 1.63143,-1.4376 1.631435,-7.72203 1.63143,1.67364 1.63142,2.2825 1.63144,-5.65092 1.63142,9.60189 1.63144,-4.32246 1.63142,-8.40188 1.63143,11.62834 1.63143,-0.84252 1.63143,0.45116 1.63143,2.5745 1.63143,-16.06297 1.63143,5.40031 1.63143,19.0182 1.63143,-19.53971 1.63143,-3.89587 1.63143,14.97302 1.63143,-10.49829 1.63143,11.34267 1.63143,1.67201 1.63143,-9.80115 1.63143,5.75035 1.63143,-10.32688 1.63143,1.00211 1.63143,12.82784 1.63143,1.78008 1.63143,-17.06011 1.63143,-0.93973 1.63143,20.78316 1.63143,-16.95228 1.63143,-8.08579 1.63143,21.16466 1.63143,-4.47468 1.63143,-6.91855 1.63143,13.07249 1.63143,-5.92428 1.63143,-12.04776 1.63143,1.79841 1.63143,14.79244 1.63143,58.91885 3.26286,-210.5836 1.63143,205.17299 1.63143,-6.57167 1.63143,-73.2176 1.63143,116.53628 1.63143,-133.62934 1.63143,-38.91717 1.63143,124.55401 1.63143,-63.29873 1.63143,-33.71603 1.63143,49.88745 1.63143,64.12161 1.63143,-39.50804 1.63143,-103.47026 3.26286,91.95586 1.63143,-7.84611 1.63143,-0.70929 1.63143,1.03508 1.63143,-8.14927 1.63143,15.20626 1.63143,8.37413 1.63143,-73.5019 1.63143,31.97752 1.63143,50.30516 1.63143,-50.55618 1.63143,-0.74666 1.63143,32.42332 1.63143,3.54393 1.63143,-26.6039 1.63143,2.48683 1.63143,15.206 1.63143,-3.59949 1.63143,3.73118 1.63143,-18.88532 1.63143,-24.48117 1.63143,53.28891 1.63143,36.71954 1.63142,-59.7042 1.63143,-11.18545 1.63143,5.97675 1.63144,-24.48275 1.63142,2.77767 1.63143,40.71128 1.63143,35.84099 1.63143,-38.39349 1.63143,-12.06638 1.63143,0.0934 1.63143,-12.10851 1.63143,19.19021 1.63143,-11.61419 1.63143,13.95258 1.63143,16.61858 1.63143,-17.80824 1.63143,-1.89817 1.63143,-5.52709 1.63143,-12.0677 1.63143,17.06255 1.63143,22.59884 1.63143,-24.00883 1.63143,-15.45292 1.63143,5.61904 1.63143,4.17804 1.63143,11.4869 1.63143,-0.60104 1.63143,-0.45708 1.63143,-10.41462 1.63143,-3.18684 1.63143,22.35031 1.63143,1.73834 1.63143,-15.67703 1.63143,-7.64454 1.63143,3.53414 1.63143,1.84985 1.63143,-3.10141 1.63143,2.70458 1.63143,4.65109 1.63143,6.90496 1.63143,-1.42684 1.63143,-5.00476 1.63143,3.8608 3.26286,-20.49252 1.63143,18.67792 1.63143,3.60568 1.63143,-12.9968 1.63143,6.85167 1.63143,3.76151 1.63143,-7.22812 1.63143,-4.444 1.63143,2.38397 1.63143,7.46598 1.63143,0.74418 1.63143,1.60438 1.63143,5.75537 1.63143,-6.94662 1.63143,-8.53816 1.63143,-7.48967 1.63143,-0.25227 1.63143,12.76706 1.63143,-2.65506 1.63143,4.7757 1.63143,8.50368 1.63143,-15.50279 1.63143,-1.63781 1.63143,14.57566 1.63143,-3.96775 1.63143,-18.24649 1.63143,2.77152 1.63143,17.79852 1.63143,-0.17922 1.63143,-5.36613 1.63143,2.09071 1.63143,-0.37016 1.63143,-3.68614 1.63143,-2.15604 1.63143,1.73813 1.63143,-0.75805 1.63143,-5.68746 1.63143,1.59969 1.63142,9.91753 1.63143,2.52083 1.63144,-6.26361 1.63142,-2.73843 1.63144,1.43718 1.63142,-3.64401 1.63143,1.5887 1.63143,7.45626 1.63143,-3.44503 1.63143,2.08694 1.63143,3.16828 1.63143,-9.06102 1.63143,-6.241 1.63143,-1.10035 1.63143,12.44152 1.63143,2.99155 1.63143,-14.21282 1.63143,10.7697 1.63143,8.09917 1.63143,-10.42615 1.63143,2.9177 1.63143,0.73429 v 0"
         clip-path="url(#pda17e31029)"
         style="fill:none;stroke:#eeebbf;stroke-width:3;stroke-linecap:square;stroke-opacity:1"
         id="path2"
         transform="matrix(0.27343447,0,0,0.27343447,10.345886,64.601699)" /><path
         d="m 78.193148,196.88334 c 0.645024,0.37098 0.533869,0.42176 0.533869,0.42176 l 1.63143,-0.48766 1.63143,-0.25368 1.63143,0.1608 1.631429,-0.67306 1.63143,1.40015 1.63143,0.66967 1.63143,1.27679 1.63143,-0.95039 1.63143,-8.33673 1.63143,2.76997 1.63143,9.03199 1.631429,0.63548 1.63143,-1.4376 1.631435,-7.72203 1.63143,1.67364 1.63142,2.2825 1.63144,-5.65092 1.63142,9.60189 1.63144,-4.32246 1.63142,-8.40188 1.63143,11.62834 1.63143,-0.84252 1.63143,0.45116 1.63143,2.5745 1.63143,-16.06297 1.63143,5.40031 1.63143,19.0182 1.63143,-19.53971 1.63143,-3.89587 1.63143,14.97302 1.63143,-10.49829 1.63143,11.34267 1.63143,1.67201 1.63143,-9.80115 1.63143,5.75035 1.63143,-10.32688 1.63143,1.00211 1.63143,12.82784 1.63143,1.78008 1.63143,-17.06011 1.63143,-0.93973 1.63143,20.78316 1.63143,-16.95228 1.63143,-8.08579 1.63143,21.16466 1.63143,-4.47468 1.63143,-6.91855 1.63143,13.07249 1.63143,-5.92428 1.63143,-12.04776 1.63143,1.79841 1.63143,14.79244 1.63143,58.91885 3.26286,-210.5836 1.63143,205.17299 1.63143,-6.57167 1.63143,-73.2176 1.63143,116.53628 1.63143,-133.62934 1.63143,-38.91717 1.63143,124.55401 1.63143,-63.29873 1.63143,-33.71603 1.63143,49.88745 1.63143,64.12161 1.63143,-39.50804 1.63143,-103.47026 3.26286,91.95586 1.63143,-7.84611 1.63143,-0.70929 1.63143,1.03508 1.63143,-8.14927 1.63143,15.20626 1.63143,8.37413 1.63143,-73.5019 1.63143,31.97752 1.63143,50.30516 1.63143,-50.55618 1.63143,-0.74666 1.63143,32.42332 1.63143,3.54393 1.63143,-26.6039 1.63143,2.48683 1.63143,15.206 1.63143,-3.59949 1.63143,3.73118 1.63143,-18.88532 1.63143,-24.48117 1.63143,53.28891 1.63143,36.71954 1.63142,-59.7042 1.63143,-11.18545 1.63143,5.97675 1.63144,-24.48275 1.63142,2.77767 1.63143,40.71128 1.63143,35.84099 1.63143,-38.39349 1.63143,-12.06638 1.63143,0.0934 1.63143,-12.10851 1.63143,19.19021 1.63143,-11.61419 1.63143,13.95258 1.63143,16.61858 1.63143,-17.80824 1.63143,-1.89817 1.63143,-5.52709 1.63143,-12.0677 1.63143,17.06255 1.63143,22.59884 1.63143,-24.00883 1.63143,-15.45292 1.63143,5.61904 1.63143,4.17804 1.63143,11.4869 1.63143,-0.60104 1.63143,-0.45708 1.63143,-10.41462 1.63143,-3.18684 1.63143,22.35031 1.63143,1.73834 1.63143,-15.67703 1.63143,-7.64454 1.63143,3.53414 1.63143,1.84985 1.63143,-3.10141 1.63143,2.70458 1.63143,4.65109 1.63143,6.90496 1.63143,-1.42684 1.63143,-5.00476 1.63143,3.8608 3.26286,-20.49252 1.63143,18.67792 1.63143,3.60568 1.63143,-12.9968 1.63143,6.85167 1.63143,3.76151 1.63143,-7.22812 1.63143,-4.444 1.63143,2.38397 1.63143,7.46598 1.63143,0.74418 1.63143,1.60438 1.63143,5.75537 1.63143,-6.94662 1.63143,-8.53816 1.63143,-7.48967 1.63143,-0.25227 1.63143,12.76706 1.63143,-2.65506 1.63143,4.7757 1.63143,8.50368 1.63143,-15.50279 1.63143,-1.63781 1.63143,14.57566 1.63143,-3.96775 1.63143,-18.24649 1.63143,2.77152 1.63143,17.79852 1.63143,-0.17922 1.63143,-5.36613 1.63143,2.09071 1.63143,-0.37016 1.63143,-3.68614 1.63143,-2.15604 1.63143,1.73813 1.63143,-0.75805 1.63143,-5.68746 1.63143,1.59969 1.63142,9.91753 1.63143,2.52083 1.63144,-6.26361 1.63142,-2.73843 1.63144,1.43718 1.63142,-3.64401 1.63143,1.5887 1.63143,7.45626 1.63143,-3.44503 1.63143,2.08694 1.63143,3.16828 1.63143,-9.06102 1.63143,-6.241 1.63143,-1.10035 1.63143,12.44152 1.63143,2.99155 1.63143,-14.21282 1.63143,10.7697 1.63143,8.09917 1.63143,-10.42615 1.63143,2.9177 1.63143,0.73429 v 0"
         clip-path="url(#pda17e31029)"
         style="fill:none;stroke:#eeebbf;stroke-width:3;stroke-linecap:square;stroke-opacity:1"
         id="path17"
         transform="matrix(0.27343447,0,0,0.27343447,10.345886,64.601699)"
         sodipodi:nodetypes="cccccccccccccccccccccccccccccccccccccccccccccccccccccccccccccccccccccccccccccccccccccccccccccccccccccccccccccccccccccccccccccccccccccccccccccccccccccccccccccccccccccccccccccccccccccccccccccccccccc" /><g
         id="g43"
         clip-path="url(#clipPath53)"
         transform="translate(-0.45351062)"
         style="stroke:#eeebbf;stroke-opacity:1;stroke-width:2;stroke-dasharray:none"><path
           id="path1"
           style="fill:none;stroke:#eeebbf;stroke-width:2;stroke-dasharray:none;stroke-opacity:1"
           d="m 30.776657,119.22334 c -0.06244,-0.0624 -0.124738,-0.125 -0.18691,-0.1877 C 25.016908,113.41569 20.503393,106.74366 17.37355,99.343876 14.208791,91.861545 12.458749,83.635145 12.458748,75 12.458746,40.45942 40.45942,12.458748 75,12.458748 c 34.54058,10e-7 62.54125,28.000673 62.54125,62.541252 0,8.635145 -1.75004,16.861546 -4.9148,24.343877 -3.16476,7.482333 -7.74424,14.220593 -13.40311,19.879463"
           sodipodi:nodetypes="cssssssc" /><text
           xml:space="preserve"
           style="font-style:normal;font-variant:normal;font-weight:normal;font-stretch:normal;font-size:52.406px;line-height:0.65;font-family:'Rubik One';-inkscape-font-specification:'Rubik One';text-align:start;text-anchor:start;fill:#f9f9f9;fill-opacity:1;stroke:#eeebbf;stroke-width:2;stroke-opacity:1;stroke-dasharray:none"
           x="76.895073"
           y="90.468925"
           id="text12"
           transform="skewX(-14.935048)"><tspan
             sodipodi:role="line"
             style="font-style:normal;font-variant:normal;font-weight:normal;font-stretch:normal;font-size:52.406px;line-height:0.65;font-family:'Rubik One';-inkscape-font-specification:'Rubik One';text-align:start;text-anchor:start;fill:#f9f9f9;stroke-width:2;stroke:#eeebbf;stroke-opacity:1;stroke-dasharray:none"
             x="76.895073"
             y="90.468925"
             id="tspan12">C</tspan></text><text
           xml:space="preserve"
           style="font-style:normal;font-variant:normal;font-weight:normal;font-stretch:normal;font-size:52.406px;line-height:0.65;font-family:'Rubik One';-inkscape-font-specification:'Rubik One';text-align:start;text-anchor:start;fill:#f9f9f9;fill-opacity:1;stroke:#eeebbf;stroke-width:2;stroke-opacity:1;stroke-dasharray:none"
           x="115.09444"
           y="112.99313"
           id="text17"
           transform="skewX(-14.935048)"><tspan
             sodipodi:role="line"
             style="font-style:normal;font-variant:normal;font-weight:normal;font-stretch:normal;font-size:52.406px;line-height:0.65;font-family:'Rubik One';-inkscape-font-specification:'Rubik One';text-align:start;text-anchor:start;fill:#f9f9f9;stroke-width:2;stroke:#eeebbf;stroke-opacity:1;stroke-dasharray:none"
             x="115.09444"
             y="112.99313"
             id="tspan17">R</tspan></text><text
           xml:space="preserve"
           style="font-style:normal;font-variant:normal;font-weight:normal;font-stretch:normal;font-size:52.406px;line-height:0.65;font-family:'Rubik One';-inkscape-font-specification:'Rubik One';text-align:start;text-anchor:start;fill:#f9f9f9;fill-opacity:1;stroke:#eeebbf;stroke-width:2;stroke-opacity:1;stroke-dasharray:none"
           x="40.19228"
           y="64.491806"
           id="text18"
           transform="skewX(-14.935048)"><tspan
             sodipodi:role="line"
             style="font-style:normal;font-variant:normal;font-weight:normal;font-stretch:normal;font-size:52.406px;line-height:0.65;font-family:'Rubik One';-inkscape-font-specification:'Rubik One';text-align:start;text-anchor:start;fill:#f9f9f9;stroke-width:2;stroke:#eeebbf;stroke-opacity:1;stroke-dasharray:none"
             x="40.19228"
             y="64.491806"
             id="tspan18">S</tspan></text></g><g
         id="g49"
         clip-path="url(#clipPath52)"
         transform="translate(3.1750001,-3.1750001)"
         style="stroke:#eeebbf;stroke-opacity:1;stroke-width:2;stroke-dasharray:none"><text
           xml:space="preserve"
           style="font-style:normal;font-variant:normal;font-weight:normal;font-stretch:normal;font-size:52.406px;line-height:0.65;font-family:'Rubik One';-inkscape-font-specification:'Rubik One';text-align:start;text-anchor:start;fill:#f9f9f9;fill-opacity:1;stroke:#eeebbf;stroke-width:2;stroke-dasharray:none;stroke-opacity:1"
           x="76.894699"
           y="90.468925"
           id="text47"
           transform="skewX(-14.935048)"><tspan
             sodipodi:role="line"
             style="font-style:normal;font-variant:normal;font-weight:normal;font-stretch:normal;font-size:52.406px;line-height:0.65;font-family:'Rubik One';-inkscape-font-specification:'Rubik One';text-align:start;text-anchor:start;fill:#f9f9f9;stroke:#eeebbf;stroke-width:2;stroke-dasharray:none;stroke-opacity:1"
             x="76.894699"
             y="90.468925"
             id="tspan47">C</tspan></text><path
           id="path46"
           style="fill:none;stroke:#eeebbf;stroke-width:2;stroke-dasharray:none;stroke-opacity:1"
           d="M 30.776657,119.22334 C 25.117787,113.56447 20.53831,106.82621 17.37355,99.343876 14.208791,91.861545 12.458749,83.635145 12.458748,75 12.458746,40.45942 40.45942,12.458748 75,12.458748 c 34.54058,10e-7 62.54125,28.000673 62.54125,62.541252 0,8.635145 -1.75004,16.861546 -4.9148,24.343877 -3.16476,7.482333 -7.74424,14.220593 -13.40311,19.879463"
           sodipodi:nodetypes="csssssc" /><text
           xml:space="preserve"
           style="font-style:normal;font-variant:normal;font-weight:normal;font-stretch:normal;font-size:52.406px;line-height:0.65;font-family:'Rubik One';-inkscape-font-specification:'Rubik One';text-align:start;text-anchor:start;fill:#f9f9f9;fill-opacity:1;stroke:#eeebbf;stroke-width:2;stroke-opacity:1;stroke-dasharray:none"
           x="115.09444"
           y="112.99313"
           id="text48"
           transform="skewX(-14.935048)"><tspan
             sodipodi:role="line"
             style="font-style:normal;font-variant:normal;font-weight:normal;font-stretch:normal;font-size:52.406px;line-height:0.65;font-family:'Rubik One';-inkscape-font-specification:'Rubik One';text-align:start;text-anchor:start;fill:#f9f9f9;stroke-width:2;stroke:#eeebbf;stroke-opacity:1;stroke-dasharray:none"
             x="115.09444"
             y="112.99313"
             id="tspan48">R</tspan></text><text
           xml:space="preserve"
           style="font-style:normal;font-variant:normal;font-weight:normal;font-stretch:normal;font-size:52.406px;line-height:0.65;font-family:'Rubik One';-inkscape-font-specification:'Rubik One';text-align:start;text-anchor:start;fill:#f9f9f9;fill-opacity:1;stroke:#eeebbf;stroke-width:2;stroke-opacity:1;stroke-dasharray:none"
           x="40.19228"
           y="64.491806"
           id="text49"
           transform="skewX(-14.935048)"><tspan
             sodipodi:role="line"
             style="font-style:normal;font-variant:normal;font-weight:normal;font-stretch:normal;font-size:52.406px;line-height:0.65;font-family:'Rubik One';-inkscape-font-specification:'Rubik One';text-align:start;text-anchor:start;fill:#f9f9f9;stroke-width:2;stroke:#eeebbf;stroke-opacity:1;stroke-dasharray:none"
             x="40.19228"
             y="64.491806"
             id="tspan49">S</tspan></text></g><g
         id="g55"
         style="stroke:#eeebbf;stroke-opacity:1"><path
           style="fill:none;stroke:#eeebbf;stroke-width:1;stroke-linecap:round;stroke-linejoin:round;stroke-opacity:1;stroke-dasharray:none"
           d="m 109.78944,43.314873 -6.91244,6.912444 h 3.72213"
           id="path54" /><path
           style="fill:none;stroke:#eeebbf;stroke-width:1;stroke-linecap:round;stroke-linejoin:round;stroke-dasharray:none;stroke-opacity:1"
           d="m 99.172886,47.052318 6.912434,-6.91245 h -3.72213"
           id="path55" /></g></g></g></svg>
